<svg width="25" height="23" viewBox="0 0 25 23" fill="none" xmlns="http://www.w3.org/2000/svg">
<rect x="0.65" y="5.65" width="23.7" height="16.7" rx="2.35" stroke="black" stroke-width="1.3"/>
<path d="M6.66024 13.8334C6.41075 13.4688 5.91289 13.3754 5.54825 13.6249C5.18361 13.8744 5.09026 14.3723 5.33976 14.7369L6.66024 13.8334ZM19.5275 11.2094C19.8921 10.9599 19.9855 10.462 19.736 10.0974C19.4865 9.73273 18.9886 9.63939 18.624 9.88888L19.5275 11.2094ZM5.33976 14.7369L7.20346 17.4607L8.52394 16.5572L6.66024 13.8334L5.33976 14.7369ZM9.70544 17.9298L19.5275 11.2094L18.624 9.88888L8.80194 16.6094L9.70544 17.9298ZM7.20346 17.4607C7.76482 18.2812 8.885 18.4912 9.70544 17.9298L8.80194 16.6094C8.71078 16.6717 8.58631 16.6484 8.52394 16.5572L7.20346 17.4607Z" fill="black"/>
<path d="M0.75 7V3C0.75 1.89543 1.64543 1 2.75 1H22.25C23.3546 1 24.25 1.89543 24.25 3V7" stroke="black" stroke-width="1.3" stroke-linecap="round"/>
</svg>
