<svg width="25" height="22" viewBox="0 0 25 22" fill="none" xmlns="http://www.w3.org/2000/svg">
<rect x="0.5" y="4.5" width="24" height="17" rx="2.5" stroke="black"/>
<path d="M6.53645 12.9181C6.33373 12.6219 5.92922 12.546 5.63295 12.7487C5.33668 12.9514 5.26084 13.3559 5.46355 13.6522L6.53645 12.9181ZM19.4428 10.0856C19.7391 9.88285 19.8149 9.47835 19.6122 9.18207C19.4095 8.8858 19.005 8.80996 18.7087 9.01268L19.4428 10.0856ZM5.46355 13.6522L7.32725 16.376L8.40014 15.6419L6.53645 12.9181L5.46355 13.6522ZM9.62074 16.806L19.4428 10.0856L18.7087 9.01268L8.88664 15.7332L9.62074 16.806ZM7.32725 16.376C7.84184 17.1281 8.86867 17.3206 9.62074 16.806L8.88664 15.7332C8.72711 15.8423 8.5093 15.8015 8.40014 15.6419L7.32725 16.376Z" fill="black"/>
<path d="M0.5 8V2.5C0.5 1.39543 1.39543 0.5 2.5 0.5H22.5C23.6046 0.5 24.5 1.39543 24.5 2.5V8" stroke="black" stroke-width="0.8"/>
</svg>
