<svg width="100" height="17" viewBox="0 0 100 17" fill="none" xmlns="http://www.w3.org/2000/svg">
<path fill-rule="evenodd" clip-rule="evenodd" d="M37 2.67641C34.0824 2.95809 31.8 5.45787 31.8 8.5C31.8 11.5421 34.0824 14.0419 37 14.3236V2.67641ZM38 14.3323C40.9653 14.0988 43.3 11.5768 43.3 8.5C43.3 5.42321 40.9653 2.9012 38 2.66765V14.3323Z" fill="#417A8E"/>
<path fill-rule="evenodd" clip-rule="evenodd" d="M7.00001 1.21998C6.92272 1.21847 6.84539 1.21771 6.768 1.21771C5.232 1.21771 3.96 1.44971 2.952 1.91371C1.96 2.36171 1.216 2.96971 0.72 3.73771C0.24 4.48971 0 5.32171 0 6.23371C0 7.12971 0.184 7.86571 0.552 8.44171C0.92 9.01771 1.392 9.48171 1.968 9.83371C2.56 10.1697 3.208 10.4497 3.912 10.6737C4.28056 10.7802 4.92072 10.4025 5.55226 10.0299C6.10352 9.7047 6.64821 9.38334 7.00001 9.3912V8.58376C6.28315 8.40841 5.62981 8.23306 5.04 8.05771C4.464 7.88171 3.992 7.64171 3.624 7.33771C3.272 7.01771 3.096 6.60171 3.096 6.08971C3.096 5.65771 3.456 4.93771 3.456 4.93771C3.456 4.93771 4.104 4.32971 4.632 4.12171C5.176 3.91371 5.88 3.80971 6.744 3.80971C6.82891 3.80971 6.91425 3.8112 7.00001 3.81418V1.21998ZM8.00001 8.82264V9.62229C8.36812 9.71986 8.7136 9.82245 9.03646 9.93007C9.62846 10.1061 10.1085 10.3541 10.4765 10.6741C10.8445 10.9781 11.0285 11.3861 11.0285 11.8981C11.0285 12.3141 10.9005 12.6901 10.6445 13.0261C10.3885 13.3461 9.98846 13.6021 9.44446 13.7941C9.05091 13.933 8.56942 14.0217 8.00001 14.0601V16.6582C9.23037 16.5997 10.2719 16.381 11.1245 16.0021C12.1325 15.5381 12.8765 14.9301 13.3565 14.1781C13.8525 13.4101 14.1004 12.5781 14.1004 11.6821C14.1004 10.8021 13.9164 10.0741 13.5484 9.49807C13.364 9.19618 12.8596 9.42821 12.3361 9.66903C11.8608 9.88769 11.3697 10.1136 11.088 9.95371C10.512 9.61771 9.864 9.34571 9.144 9.13771C8.76499 9.02573 8.38366 8.92071 8.00001 8.82264ZM7.00001 16.6707V14.0769C6.06735 14.0455 5.15416 13.8712 4.26045 13.5541C3.26845 13.2021 2.43645 12.7621 1.76445 12.2341L0.684448 14.6581C1.38845 15.2501 2.34045 15.7381 3.54045 16.1221C4.64609 16.4612 5.79929 16.6441 7.00001 16.6707ZM8.00001 3.91337V1.28187C8.59214 1.34373 9.18147 1.45035 9.768 1.60171C10.76 1.85771 11.624 2.22571 12.36 2.70571L11.376 5.12971C10.624 4.68171 9.848 4.35371 9.048 4.14571C8.69235 4.04613 8.34302 3.96868 8.00001 3.91337Z" fill="#575555"/>
<path fill-rule="evenodd" clip-rule="evenodd" d="M22 7.01857H17.926V0H15V17H17.926V9.71429H22V7.01857ZM23 9.71429H26.074V17H29V0H26.074V7.01857H23V9.71429Z" fill="#575555"/>
<path fill-rule="evenodd" clip-rule="evenodd" d="M37 0.0121934C35.9724 0.0628447 35.0117 0.27128 34.118 0.637499C33.0809 1.0625 32.179 1.66065 31.4125 2.43194C30.6459 3.1875 30.0522 4.08472 29.6313 5.12361C29.2104 6.14676 29 7.27222 29 8.5C29 9.72778 29.2104 10.8611 29.6313 11.9C30.0522 12.9231 30.6459 13.8204 31.4125 14.5917C32.179 15.3472 33.0809 15.9375 34.118 16.3625C35.0069 16.7267 35.9676 16.9349 37 16.987V14.2891C36.3929 14.2417 35.823 14.1064 35.2905 13.8833C34.6141 13.6 34.0279 13.1986 33.5318 12.6792C33.0358 12.144 32.645 11.5222 32.3594 10.8139C32.0889 10.1056 31.9536 9.33426 31.9536 8.5C31.9536 7.65 32.0889 6.8787 32.3594 6.18611C32.645 5.47778 33.0358 4.86389 33.5318 4.34444C34.0429 3.80926 34.6291 3.4 35.2905 3.11667C35.823 2.89358 36.3929 2.75831 37 2.71088V0.0121934ZM38 14.2891C38.6071 14.2417 39.177 14.1064 39.7095 13.8833C40.3859 13.6 40.9721 13.1986 41.4682 12.6792C41.9642 12.144 42.3475 11.5301 42.618 10.8375C42.9036 10.1292 43.0464 9.35 43.0464 8.5C43.0464 7.65 42.9036 6.8787 42.618 6.18611C42.3475 5.47778 41.9642 4.86389 41.4682 4.34444C40.9721 3.80926 40.3859 3.4 39.7095 3.11667C39.177 2.89358 38.6071 2.75831 38 2.71088V0.0119324C39.039 0.0621251 39.9997 0.270647 40.882 0.637499C41.9191 1.0625 42.821 1.66065 43.5875 2.43194C44.3541 3.1875 44.9478 4.08472 45.3687 5.12361C45.7896 6.14676 46 7.27222 46 8.5C46 9.72778 45.7896 10.8611 45.3687 11.9C44.9478 12.9389 44.3541 13.8361 43.5875 14.5917C42.821 15.3472 41.9191 15.9375 40.882 16.3625C39.9949 16.7313 39.0342 16.9401 38 16.9889V14.2891Z" fill="#575555"/>
<path fill-rule="evenodd" clip-rule="evenodd" d="M57 0H55.789L51.8066 12.9321L47.9725 0H45L50.1083 17H53.1688L57 4.56246V4.2945V3.13286V0ZM58 7.59188L60.8532 17H63.8917L69 0H66.2697L62.3225 12.9994L58.4312 0H58V7.59188Z" fill="#575555"/>
<path fill-rule="evenodd" clip-rule="evenodd" d="M76 14.2703C74.7223 14.2635 73.7289 13.8724 73.0196 13.0972C72.3192 12.315 71.969 11.062 71.969 9.33803V0H69V9.45775C69 11.9 69.6166 13.7676 70.8499 15.0606C72.0963 16.3513 73.8129 16.9978 76 17V14.2703ZM77 16.9524C78.7114 16.7816 80.0872 16.151 81.1272 15.0606C82.3757 13.7676 83 11.9 83 9.45775V0H80.0767V9.33803C80.0767 11.062 79.7265 12.315 79.0261 13.0972C78.5112 13.6722 77.8358 14.0359 77 14.1881V16.9524Z" fill="#575555"/>
<path fill-rule="evenodd" clip-rule="evenodd" d="M91 2.6237C89.3072 2.42763 87.3408 2.3864 87 2.49999V9.5C87.4377 9.5 87.8934 9.51347 88.356 9.52714C89.2377 9.55321 90.1446 9.58002 91 9.51568V2.6237ZM92 9.38823C93.0183 9.19479 93.9039 8.7948 94.5 8C95.1708 7.10557 96.5 4.16669 93 3C92.7341 2.91136 92.3896 2.8332 92 2.76551V9.38823Z" fill="#417A8E"/>
<path fill-rule="evenodd" clip-rule="evenodd" d="M91 0.00053063C90.9603 0.000176877 90.9205 0 90.8805 0H84V17H87.1058V12.0943H90.8805C90.9205 12.0943 90.9603 12.0941 91 12.0938V9.41916C90.9138 9.42163 90.8262 9.42286 90.7372 9.42286H87.1058V2.67143H90.7372C90.8262 2.67143 90.9138 2.67266 91 2.67512V0.00053063ZM92 9.32448C92.7576 9.19455 93.364 8.93592 93.8191 8.54857C94.5199 7.94952 94.8703 7.11571 94.8703 6.04714C94.8703 4.96238 94.5199 4.12857 93.8191 3.54571C93.364 3.15837 92.7576 2.89973 92 2.7698V0.0499644C93.0102 0.143851 93.9033 0.370054 94.6792 0.728572C95.7463 1.21429 96.5666 1.91048 97.1399 2.81714C97.7133 3.72381 98 4.80048 98 6.04714C98 7.29381 97.7133 8.37048 97.1399 9.27714C96.5666 10.1838 95.7463 10.88 94.6792 11.3657C93.9033 11.7242 93.0102 11.9504 92 12.0443V9.32448Z" fill="#575555"/>
<circle cx="97" cy="14" r="3" fill="#417A8E"/>
</svg>
