<svg width="68" height="48" viewBox="0 0 68 48" fill="none" xmlns="http://www.w3.org/2000/svg">
<mask id="path-1-inside-1_55_21" fill="white">
<rect width="68" height="47.8519" rx="0.3"/>
</mask>
<rect width="68" height="47.8519" rx="0.3" stroke="#ABABAB" stroke-width="1.6" stroke-dasharray="2 2" mask="url(#path-1-inside-1_55_21)"/>
<path d="M26.5464 11.4824C24.5762 12.1392 24.0279 15.0503 24.0279 16.5195L22.6436 17.2963C21.3843 17.9259 19.4954 20.4444 20.1251 22.963C20.7359 25.4063 23.1884 26.8034 24.6575 27.2232H43.5464C44.8057 27.2232 46.3797 25.9639 47.3242 24.075C47.639 23.4454 48.202 20.6408 46.0649 19.038C43.5464 17.1491 40.3983 18.4084 40.3983 17.7787C40.3983 15.5027 39.8206 14.0356 37.8798 12.7417C36.3686 11.7343 33.8921 12.7417 32.8427 13.3713C32.6328 12.9516 31.9612 11.9862 30.9538 11.4824C29.6946 10.8528 28.5167 10.8257 26.5464 11.4824Z" fill="#D9D9D9"/>
<path d="M25.394 33.7737C25.0347 33.7737 24.7127 33.6944 24.428 33.5357C24.148 33.3724 23.9263 33.1507 23.763 32.8707C23.5997 32.586 23.518 32.264 23.518 31.9047V28.8457H24.176V31.8907C24.176 32.1474 24.2297 32.369 24.337 32.5557C24.4443 32.7424 24.589 32.887 24.771 32.9897C24.9577 33.0924 25.1653 33.1437 25.394 33.1437C25.632 33.1437 25.8397 33.0924 26.017 32.9897C26.199 32.887 26.3413 32.7424 26.444 32.5557C26.5513 32.369 26.605 32.1497 26.605 31.8977V28.8457H27.27V31.9117C27.27 32.271 27.1883 32.5907 27.025 32.8707C26.8617 33.1507 26.64 33.3724 26.36 33.5357C26.08 33.6944 25.758 33.7737 25.394 33.7737ZM29.9903 33.7737C29.7383 33.7737 29.5097 33.7224 29.3043 33.6197C29.1037 33.5124 28.9427 33.3654 28.8213 33.1787C28.7 32.992 28.6323 32.7797 28.6183 32.5417V31.5407C28.6323 31.298 28.7 31.0857 28.8213 30.9037C28.9473 30.717 29.1107 30.5724 29.3113 30.4697C29.5167 30.3624 29.743 30.3087 29.9903 30.3087C30.2937 30.3087 30.5667 30.3857 30.8093 30.5397C31.0567 30.6937 31.2503 30.9014 31.3903 31.1627C31.5303 31.424 31.6003 31.718 31.6003 32.0447C31.6003 32.3714 31.5303 32.6654 31.3903 32.9267C31.2503 33.188 31.0567 33.3957 30.8093 33.5497C30.5667 33.699 30.2937 33.7737 29.9903 33.7737ZM28.2403 35.0967V30.3787H28.8703V31.2537L28.7513 32.0587L28.8703 32.8707V35.0967H28.2403ZM29.8853 33.1787C30.0953 33.1787 30.2797 33.1297 30.4383 33.0317C30.597 32.9337 30.723 32.8007 30.8163 32.6327C30.9097 32.46 30.9563 32.2617 30.9563 32.0377C30.9563 31.8184 30.9097 31.6224 30.8163 31.4497C30.723 31.277 30.597 31.144 30.4383 31.0507C30.2797 30.9527 30.0977 30.9037 29.8923 30.9037C29.6823 30.9037 29.498 30.9527 29.3393 31.0507C29.1807 31.144 29.057 31.277 28.9683 31.4497C28.8797 31.6224 28.8353 31.8207 28.8353 32.0447C28.8353 32.264 28.8773 32.46 28.9613 32.6327C29.05 32.8007 29.1737 32.9337 29.3323 33.0317C29.4957 33.1297 29.68 33.1787 29.8853 33.1787ZM32.3145 33.7037V28.7057H32.9445V33.7037H32.3145ZM35.3853 33.7737C35.0586 33.7737 34.7646 33.6967 34.5033 33.5427C34.242 33.3887 34.0343 33.181 33.8803 32.9197C33.7263 32.6537 33.6493 32.3574 33.6493 32.0307C33.6493 31.7087 33.7263 31.4194 33.8803 31.1627C34.0343 30.9014 34.242 30.6937 34.5033 30.5397C34.7646 30.3857 35.0586 30.3087 35.3853 30.3087C35.7073 30.3087 35.999 30.3857 36.2603 30.5397C36.5263 30.689 36.7363 30.8944 36.8903 31.1557C37.0443 31.417 37.1213 31.7087 37.1213 32.0307C37.1213 32.3574 37.0443 32.6537 36.8903 32.9197C36.7363 33.181 36.5263 33.3887 36.2603 33.5427C35.999 33.6967 35.7073 33.7737 35.3853 33.7737ZM35.3853 33.1647C35.5953 33.1647 35.782 33.1157 35.9453 33.0177C36.1086 32.9197 36.237 32.7867 36.3303 32.6187C36.4236 32.446 36.4703 32.25 36.4703 32.0307C36.4703 31.816 36.4213 31.6247 36.3233 31.4567C36.23 31.2887 36.1016 31.158 35.9383 31.0647C35.7796 30.9667 35.5953 30.9177 35.3853 30.9177C35.1753 30.9177 34.9886 30.9667 34.8253 31.0647C34.662 31.158 34.5336 31.2887 34.4403 31.4567C34.347 31.6247 34.3003 31.816 34.3003 32.0307C34.3003 32.25 34.347 32.446 34.4403 32.6187C34.5336 32.7867 34.662 32.9197 34.8253 33.0177C34.9886 33.1157 35.1753 33.1647 35.3853 33.1647ZM39.2451 33.7737C38.9418 33.7737 38.6665 33.699 38.4191 33.5497C38.1718 33.3957 37.9758 33.188 37.8311 32.9267C37.6911 32.6654 37.6211 32.3714 37.6211 32.0447C37.6211 31.718 37.6911 31.424 37.8311 31.1627C37.9758 30.9014 38.1695 30.6937 38.4121 30.5397C38.6595 30.3857 38.9371 30.3087 39.2451 30.3087C39.4971 30.3087 39.7211 30.3624 39.9171 30.4697C40.1178 30.5724 40.2788 30.717 40.4001 30.9037C40.5215 31.0857 40.5891 31.298 40.6031 31.5407V32.5417C40.5891 32.7797 40.5215 32.992 40.4001 33.1787C40.2835 33.3654 40.1248 33.5124 39.9241 33.6197C39.7281 33.7224 39.5018 33.7737 39.2451 33.7737ZM39.3501 33.1787C39.6628 33.1787 39.9148 33.0737 40.1061 32.8637C40.2975 32.649 40.3931 32.376 40.3931 32.0447C40.3931 31.816 40.3488 31.6177 40.2601 31.4497C40.1761 31.277 40.0548 31.144 39.8961 31.0507C39.7375 30.9527 39.5531 30.9037 39.3431 30.9037C39.1331 30.9037 38.9465 30.9527 38.7831 31.0507C38.6245 31.1487 38.4985 31.284 38.4051 31.4567C38.3165 31.6247 38.2721 31.8184 38.2721 32.0377C38.2721 32.2617 38.3165 32.46 38.4051 32.6327C38.4985 32.8007 38.6268 32.9337 38.7901 33.0317C38.9535 33.1297 39.1401 33.1787 39.3501 33.1787ZM40.3511 33.7037V32.8077L40.4701 31.9957L40.3511 31.1907V30.3787H40.9881V33.7037H40.3511ZM43.3124 33.7737C43.0044 33.7737 42.729 33.699 42.4864 33.5497C42.2437 33.3957 42.05 33.188 41.9054 32.9267C41.7654 32.6654 41.6954 32.3714 41.6954 32.0447C41.6954 31.718 41.7654 31.424 41.9054 31.1627C42.05 30.9014 42.2437 30.6937 42.4864 30.5397C42.729 30.3857 43.0044 30.3087 43.3124 30.3087C43.5597 30.3087 43.7837 30.3624 43.9844 30.4697C44.185 30.5724 44.346 30.717 44.4674 30.9037C44.5934 31.0857 44.6634 31.298 44.6774 31.5407V32.5417C44.6634 32.7797 44.5957 32.992 44.4744 33.1787C44.353 33.3654 44.192 33.5124 43.9914 33.6197C43.7907 33.7224 43.5644 33.7737 43.3124 33.7737ZM43.4174 33.1787C43.6274 33.1787 43.8094 33.1297 43.9634 33.0317C44.122 32.9337 44.2457 32.8007 44.3344 32.6327C44.423 32.46 44.4674 32.264 44.4674 32.0447C44.4674 31.816 44.4207 31.6177 44.3274 31.4497C44.2387 31.2817 44.115 31.1487 43.9564 31.0507C43.8024 30.9527 43.6204 30.9037 43.4104 30.9037C43.2004 30.9037 43.016 30.9527 42.8574 31.0507C42.6987 31.1487 42.5727 31.284 42.4794 31.4567C42.3907 31.6247 42.3464 31.8184 42.3464 32.0377C42.3464 32.2617 42.3907 32.46 42.4794 32.6327C42.5727 32.8007 42.6987 32.9337 42.8574 33.0317C43.0207 33.1297 43.2074 33.1787 43.4174 33.1787ZM45.0624 33.7037H44.4254V32.8077L44.5444 31.9957L44.4254 31.1907V28.7057H45.0624V33.7037Z" fill="#ABABAB"/>
<path fill-rule="evenodd" clip-rule="evenodd" d="M37.5897 23.4172C37.8428 23.746 37.6085 24.2222 37.1935 24.2222H35.6065C35.3303 24.2222 35.1065 24.4461 35.1065 24.7222V27.7037H32.588V24.7222C32.588 24.4461 32.3641 24.2222 32.088 24.2222H30.5009C30.086 24.2222 29.8516 23.746 30.1047 23.4172L33.451 19.0702C33.6512 18.8102 34.0433 18.8102 34.2434 19.0702L37.5897 23.4172Z" fill="white"/>
</svg>
