<svg width="18" height="22" viewBox="0 0 18 22" fill="none" xmlns="http://www.w3.org/2000/svg">
<rect x="1.29999" y="5.08804" width="1.5" height="16" rx="0.75" transform="rotate(-5.04994 1.29999 5.08804)" fill="#4F4F4F"/>
<path d="M3.79999 21C3.52385 21 3.29999 20.7761 3.29999 20.5V20C3.29999 19.7239 3.52385 19.5 3.79999 19.5H14.3C14.5761 19.5 14.8 19.7239 14.8 20V20.5C14.8 20.7761 14.5761 21 14.3 21H3.79999Z" fill="#4F4F4F"/>
<rect width="1.5" height="16" rx="0.75" transform="matrix(-0.996118 -0.088024 -0.088024 0.996118 16.7045 5.08804)" fill="#4F4F4F"/>
<rect x="0.35" y="3.35" width="17.3" height="1.3" rx="0.65" stroke="#4F4F4F" stroke-width="0.7"/>
<line x1="5.69754" y1="7.95583" x2="6.69754" y2="16.9558" stroke="#4F4F4F" stroke-width="0.8"/>
<line y1="-0.4" x2="9.05539" y2="-0.4" transform="matrix(-0.110432 0.993884 0.993884 0.110432 13.3 8)" stroke="#4F4F4F" stroke-width="0.8"/>
<line x1="9.49998" y1="6.98547" x2="9.49998" y2="18.0145" stroke="#4F4F4F" stroke-width="0.8"/>
<path d="M7.5 3V2C7.5 1.44772 7.94772 1 8.5 1H9.5C10.0523 1 10.5 1.44772 10.5 2V3" stroke="#4F4F4F" stroke-width="0.6"/>
</svg>
