<svg width="29" height="32" viewBox="0 0 29 32" fill="none" xmlns="http://www.w3.org/2000/svg">
<path d="M6.94838 9H22.0516C23.5378 9 24.8 10.0881 25.0189 11.5581L27.3274 27.0581C27.5974 28.8709 26.193 30.5 24.3601 30.5H4.63987C2.80702 30.5 1.4026 28.8709 1.67259 27.0581L3.98111 11.5581C4.20004 10.0881 5.4622 9 6.94838 9Z" stroke="#4F4F4F" stroke-width="2"/>
<path d="M21.9705 7.21624C22.0616 7.51377 22.1137 7.95146 22.1334 8.49014C22.1529 9.0221 22.14 9.62488 22.1135 10.2392C22.0927 10.722 22.0628 11.2189 22.0344 11.6901C22.0032 12.2087 21.9738 12.6963 21.9605 13.1H21.7797C21.7951 12.7454 21.8263 12.3151 21.8604 11.8437C21.8902 11.4325 21.9223 10.9899 21.9481 10.5388C21.9813 9.9592 22.0031 9.37441 21.9921 8.85308C21.9813 8.34009 21.9384 7.85498 21.827 7.49112C21.4373 6.21817 20.8643 5.05543 20.1368 4.07117C19.4093 3.08688 18.5393 2.29749 17.5721 1.75547C16.604 1.21297 15.5596 0.930292 14.5 0.930292C13.4403 0.930292 12.396 1.21297 11.4279 1.75547C10.4607 2.29749 9.5907 3.08688 8.86319 4.07117C8.13569 5.05543 7.56268 6.21817 7.17296 7.49112C7.06244 7.85209 7.01426 8.33471 6.99631 8.84754C6.97808 9.36825 6.99034 9.95257 7.01411 10.5324C7.03447 11.029 7.06264 11.5154 7.08848 11.9615C7.11309 12.3862 7.13557 12.7744 7.14717 13.1H6.96595C6.95614 12.7388 6.93596 12.3086 6.91439 11.8489C6.89019 11.333 6.86424 10.7799 6.84925 10.2452C6.83203 9.63106 6.82832 9.02782 6.85462 8.49525C6.88124 7.95632 6.9376 7.51639 7.02949 7.21624C7.44469 5.8601 8.05146 4.63399 8.81126 3.60603C9.57103 2.5781 10.4667 1.77132 11.4427 1.22433C12.4179 0.677829 13.4563 0.4 14.5 0.4C15.5437 0.4 16.5821 0.677828 17.5572 1.22433C18.5333 1.77132 19.4289 2.5781 20.1887 3.60603C20.9485 4.63399 21.5553 5.8601 21.9705 7.21624Z" stroke="#4F4F4F" stroke-width="0.8"/>
</svg>
