<svg width="29" height="28" viewBox="0 0 29 28" fill="none" xmlns="http://www.w3.org/2000/svg">
<rect x="1" y="8" width="27" height="19" rx="3" stroke="#4F4F4F" stroke-width="2"/>
<mask id="path-2-inside-1_13_39" fill="white">
<path d="M25 11.5C25 9.9898 24.7413 8.49438 24.2388 7.09914C23.7362 5.7039 22.9997 4.43615 22.0711 3.36827C21.1425 2.3004 20.0401 1.45331 18.8268 0.875385C17.6136 0.297456 16.3132 -6.6013e-08 15 0C13.6868 6.6013e-08 12.3864 0.297456 11.1732 0.875386C9.95991 1.45331 8.85752 2.3004 7.92893 3.36827C7.00035 4.43615 6.26375 5.7039 5.7612 7.09914C5.25866 8.49439 5 9.9898 5 11.5L5.86131 11.5C5.86131 10.1199 6.09769 8.75326 6.55695 7.47819C7.01621 6.20312 7.68937 5.04456 8.53797 4.06867C9.38658 3.09277 10.394 2.31865 11.5028 1.7905C12.6115 1.26234 13.7999 0.990508 15 0.990508C16.2001 0.990508 17.3885 1.26234 18.4972 1.7905C19.606 2.31865 20.6134 3.09277 21.462 4.06867C22.3106 5.04456 22.9838 6.20312 23.443 7.47819C23.9023 8.75326 24.1387 10.1199 24.1387 11.5H25Z"/>
</mask>
<path d="M25 11.5C25 9.9898 24.7413 8.49438 24.2388 7.09914C23.7362 5.7039 22.9997 4.43615 22.0711 3.36827C21.1425 2.3004 20.0401 1.45331 18.8268 0.875385C17.6136 0.297456 16.3132 -6.6013e-08 15 0C13.6868 6.6013e-08 12.3864 0.297456 11.1732 0.875386C9.95991 1.45331 8.85752 2.3004 7.92893 3.36827C7.00035 4.43615 6.26375 5.7039 5.7612 7.09914C5.25866 8.49439 5 9.9898 5 11.5L5.86131 11.5C5.86131 10.1199 6.09769 8.75326 6.55695 7.47819C7.01621 6.20312 7.68937 5.04456 8.53797 4.06867C9.38658 3.09277 10.394 2.31865 11.5028 1.7905C12.6115 1.26234 13.7999 0.990508 15 0.990508C16.2001 0.990508 17.3885 1.26234 18.4972 1.7905C19.606 2.31865 20.6134 3.09277 21.462 4.06867C22.3106 5.04456 22.9838 6.20312 23.443 7.47819C23.9023 8.75326 24.1387 10.1199 24.1387 11.5H25Z" stroke="#4F4F4F" stroke-width="1.6" mask="url(#path-2-inside-1_13_39)"/>
</svg>
