<?xml version="1.0" encoding="UTF-8" standalone="no"?>
<!-- Created with Inkscape (http://www.inkscape.org/) -->

<svg
   width="17.390909mm"
   height="17.381714mm"
   viewBox="0 0 17.390909 17.381714"
   version="1.1"
   id="svg1"
   sodipodi:docname="exchangePolicty_icon.svg"
   inkscape:export-filename="Downloads\customer_support_icon.svg"
   inkscape:export-xdpi="96"
   inkscape:export-ydpi="96"
   xml:space="preserve"
   xmlns:inkscape="http://www.inkscape.org/namespaces/inkscape"
   xmlns:sodipodi="http://sodipodi.sourceforge.net/DTD/sodipodi-0.dtd"
   xmlns="http://www.w3.org/2000/svg"
   xmlns:svg="http://www.w3.org/2000/svg"><sodipodi:namedview
     id="namedview1"
     pagecolor="#ffffff"
     bordercolor="#000000"
     borderopacity="0.25"
     inkscape:showpageshadow="2"
     inkscape:pageopacity="0.0"
     inkscape:pagecheckerboard="0"
     inkscape:deskcolor="#d1d1d1"
     inkscape:document-units="mm"
     showguides="true" /><defs
     id="defs1" /><g
     inkscape:label="Layer 1"
     inkscape:groupmode="layer"
     id="layer1"
     transform="translate(-96.292286,-128.39974)"><g
       id="g13"
       transform="matrix(0.233782,0,0,0.233782,82.136846,115.37957)"><g
         id="g15"
         transform="translate(140.90631,3.3879116)"><g
           id="g37"
           transform="translate(1.130852,-3.109843)"><path
             id="path33"
             style="opacity:0.777311;fill:none;fill-rule:evenodd;stroke:#000000;stroke-width:2.29701;stroke-linecap:square;stroke-linejoin:miter;stroke-dasharray:none;stroke-dashoffset:0"
             d="M -72.003632,73.825442 A 34.102932,34.102932 0 0 1 -42.349426,56.564068 34.102932,34.102932 0 0 1 -8.2464943,90.667 v 0 a 34.102932,34.102932 0 0 1 -27.9939527,33.55131" /><path
             style="opacity:0.773109;fill:#23244a;fill-opacity:1;fill-rule:evenodd;stroke:none;stroke-width:2.29702;stroke-linecap:square;stroke-linejoin:bevel;stroke-dasharray:none;stroke-dashoffset:0"
             d="m -80.474361,82.527792 c 0.912145,-2.52745 2.388616,-4.275757 6.002223,-5.36413 3.613606,-1.088373 5.013008,-0.704467 7.102435,0.612767 1.145185,0.721957 1.099309,2.904155 0.900064,3.29976 -0.293343,0.582439 -0.300101,11.805094 -0.300101,11.805094 0,0 -0.450152,1.400472 -1.500507,1.75059 -1.050353,0.350117 -3.751264,0.450151 -3.751264,0.450151 0,0 0.80027,6.752276 3.451163,10.753626 2.650895,4.00135 6.202091,8.05271 8.102733,9.35315 1.90064,1.30044 4.151399,2.70091 4.151399,2.70091 0,0 1.229269,-3.8034 2.751167,-4.30145 1.600539,-0.52379 5.651665,1.32939 5.651665,1.35046 l 8.102732,2.70091 c 0,0 1.716973,0.97174 1.550523,3.30111 -0.193883,2.71328 -1.06694,5.70881 -4.901652,7.75262 -3.834712,2.04381 -6.851406,0.62347 -9.153086,0.15005 -2.289186,-0.47085 -15.216954,-5.58875 -20.456897,-13.15444 -4.85782,-7.01396 -8.089379,-12.80698 -8.502867,-20.056761 -0.248805,-4.362353 -0.54246,-9.383866 0.80027,-13.104417 z"
             id="path35"
             sodipodi:nodetypes="szsscscsscsccszssss" /><text
             xml:space="preserve"
             style="font-weight:bold;font-size:10.2335px;font-family:Gadugi;-inkscape-font-specification:'Gadugi, Bold';opacity:1;fill:#302e4c;fill-opacity:1;fill-rule:evenodd;stroke:none;stroke-width:2.22538;stroke-linecap:square;stroke-linejoin:bevel;stroke-dasharray:none;stroke-dashoffset:0"
             x="-54.431316"
             y="87.268494"
             id="text36"
             transform="scale(0.96880947,1.0321947)"><tspan
               sodipodi:role="line"
               id="tspan36"
               style="font-style:normal;font-variant:normal;font-weight:bold;font-stretch:normal;font-size:10.2335px;font-family:Gadugi;-inkscape-font-specification:'Gadugi Bold';fill:#302e4c;fill-opacity:1;stroke-width:2.22537"
               x="-54.431316"
               y="87.268494">24 / 7</tspan></text><text
             xml:space="preserve"
             style="font-style:normal;font-variant:normal;font-weight:normal;font-stretch:normal;font-size:9.05402px;font-family:Gadugi;-inkscape-font-specification:Gadugi;opacity:1;fill:#000000;fill-rule:evenodd;stroke:none;stroke-width:2.29702;stroke-linecap:square;stroke-linejoin:bevel;stroke-dasharray:none;stroke-dashoffset:0"
             x="-60.057335"
             y="100.4733"
             id="text37"><tspan
               sodipodi:role="line"
               id="tspan37"
               style="font-style:normal;font-variant:normal;font-weight:normal;font-stretch:normal;font-size:9.05402px;font-family:Gadugi;-inkscape-font-specification:Gadugi;fill:#302e4c;fill-opacity:1;stroke-width:2.29701"
               x="-60.057335"
               y="100.4733">SUPPORT</tspan></text></g></g></g></g></svg>
