<svg width="53" height="12" viewBox="0 0 53 12" fill="none" xmlns="http://www.w3.org/2000/svg">
<path fill-rule="evenodd" clip-rule="evenodd" d="M4 1.14641C3.16191 1.17008 2.45691 1.28806 1.885 1.50035C1.25156 1.73104 0.776473 2.04411 0.45975 2.43958C0.153244 2.82681 -8.90623e-06 3.25523 -8.90623e-06 3.72484C-8.90623e-06 4.18622 0.117485 4.56521 0.352473 4.86181C0.587461 5.15841 0.888859 5.39733 1.25667 5.57859C1.63469 5.75161 2.04847 5.89579 2.49802 6.01113C2.73336 6.06596 3.14213 5.87148 3.54541 5.67962C3.7012 5.60551 3.85617 5.53178 4 5.47297V4.83927C3.72247 4.78087 3.4619 4.72247 3.2183 4.66407C2.8505 4.57345 2.5491 4.44986 2.31411 4.29333C2.08934 4.12855 1.97695 3.91434 1.97695 3.65069C1.97695 3.42824 2.20683 3.0575 2.20683 3.0575C2.20683 3.0575 2.62062 2.74442 2.95777 2.63731C3.23847 2.55076 3.58588 2.49919 4 2.48257V1.14641ZM5 5.03586V5.44694C5.27594 5.50392 5.53269 5.56435 5.77026 5.62821C6.14829 5.71883 6.45479 5.84654 6.68978 6.01131C6.92477 6.16785 7.04226 6.37795 7.04226 6.64159C7.04226 6.8558 6.96053 7.04942 6.79706 7.22244C6.63359 7.38722 6.37817 7.51904 6.03079 7.61791C5.75488 7.69644 5.41128 7.74378 5 7.75994V9.0963C5.83307 9.07273 6.53425 8.95892 7.10356 8.75488C7.74722 8.51595 8.2223 8.20287 8.52881 7.81564C8.84553 7.42018 9.00389 6.99174 9.00389 6.53037C9.00389 6.07723 8.8864 5.70236 8.65141 5.40576C8.5336 5.2503 8.21154 5.36978 7.87726 5.49379C7.57375 5.60639 7.26017 5.72272 7.08028 5.64038C6.71247 5.46736 6.29869 5.3273 5.83893 5.2202C5.56124 5.15404 5.28159 5.09259 5 5.03586ZM4 9.08045V7.73527C3.56678 7.69475 3.14028 7.61444 2.72052 7.49432C2.08708 7.31307 1.5558 7.08649 1.12669 6.81461L0.437048 8.06281C0.886591 8.36765 1.4945 8.61894 2.26076 8.81667C2.82137 8.95531 3.40111 9.04323 4 9.08045ZM5 2.51682V1.16649C5.41461 1.19657 5.82707 1.2543 6.23739 1.33969C6.87083 1.47151 7.42255 1.66101 7.89252 1.90817L7.26418 3.15636C6.78399 2.92567 6.28847 2.75678 5.77763 2.64967C5.51293 2.5899 5.25372 2.54562 5 2.51682Z" fill="#4F4F4F"/>
<path fill-rule="evenodd" clip-rule="evenodd" d="M13 2.58476C12.7025 2.64154 12.4268 2.73763 12.173 2.87306C11.919 3.00619 11.7005 3.17437 11.5175 3.37758V0H10V9.26873H11.5175V5.89601C11.5175 5.44632 11.5903 5.07573 11.736 4.78426C11.8898 4.48447 12.1042 4.25962 12.3794 4.10972C12.5674 4.00732 12.7742 3.93989 13 3.90745V2.58476ZM14 4.00506C14.1765 4.07775 14.3283 4.18342 14.4553 4.32208C14.7305 4.61355 14.8681 5.05491 14.8681 5.64618V9.26873H16.3855V5.44632C16.3855 4.77177 16.2682 4.22214 16.0335 3.79743C15.7988 3.36439 15.4751 3.04377 15.0623 2.83558C14.7434 2.6715 14.3893 2.57208 14 2.53731V4.00506Z" fill="#575555"/>
<path fill-rule="evenodd" clip-rule="evenodd" d="M20 3.00194C19.527 3.05648 19.0948 3.18982 18.7036 3.40194C18.1769 3.68749 17.7613 4.08318 17.4568 4.58901C17.1523 5.08668 17 5.66186 17 6.31454C17 6.95907 17.1523 7.53424 17.4568 8.04007C17.7613 8.5459 18.1769 8.94567 18.7036 9.23938C19.0948 9.4515 19.527 9.58484 20 9.63938V8.30229C19.8252 8.26157 19.6606 8.19864 19.506 8.1135C19.2179 7.95033 18.9875 7.71373 18.8147 7.40371C18.6418 7.09368 18.5554 6.73063 18.5554 6.31454C18.5554 5.8903 18.6418 5.52724 18.8147 5.22538C18.9875 4.91535 19.2179 4.67875 19.506 4.51558C19.6596 4.43098 19.8243 4.36831 20 4.32757V3.00194ZM21 8.30694C21.1848 8.26644 21.3575 8.20196 21.5181 8.1135C21.8144 7.95033 22.0448 7.71373 22.2094 7.40371C22.3823 7.09368 22.4687 6.73063 22.4687 6.31454C22.4687 5.8903 22.3823 5.52724 22.2094 5.22538C22.0448 4.91535 21.8144 4.67875 21.5181 4.51558C21.3565 4.42654 21.1837 4.36179 21 4.32134V3C21.4844 3.05328 21.9245 3.18726 22.3205 3.40194C22.8555 3.68749 23.2711 4.0791 23.5673 4.57677C23.8718 5.07444 24.0241 5.6537 24.0241 6.31454C24.0241 6.95907 23.8718 7.53424 23.5673 8.04007C23.2711 8.5459 22.8555 8.94567 22.3205 9.23938C21.9245 9.45406 21.4844 9.58804 21 9.64132V8.30694Z" fill="#575555"/>
<path fill-rule="evenodd" clip-rule="evenodd" d="M30 3H29.407L27.4447 7.94316L25.5715 3H24L26.6103 9.69408H28.2084L30 5.27136V4.88636V4.46668V3ZM31 7.40246L31.9108 9.69408H33.5089L36.1325 3H34.6543L32.7186 7.96032L31 3.50452V7.40246Z" fill="#575555"/>
<path fill-rule="evenodd" clip-rule="evenodd" d="M40 7.81326C39.5891 7.73077 39.2463 7.54603 38.9904 7.25905C38.6391 6.85629 38.4634 6.21106 38.4634 5.32335V0.514923H37V5.385C37 6.64258 37.3094 7.60427 37.9281 8.27005C38.4527 8.82758 39.1433 9.15167 40 9.24232V7.81326ZM41 9.24597C41.8802 9.16065 42.6207 8.83535 43.1461 8.27005C43.7725 7.60427 44.0241 6.64258 44.0241 5.385V0.514923H42.619V5.32335C42.619 6.21106 42.4433 6.85629 42.0919 7.25905C41.8288 7.56065 41.4476 7.74932 41 7.82507V9.24597Z" fill="#575555"/>
<path fill-rule="evenodd" clip-rule="evenodd" d="M48 2.70275C47.7765 2.76421 47.5648 2.84779 47.365 2.95348C47.0766 3.10094 46.8243 3.29601 46.6082 3.53869V2.65041H45V11.8434H46.6893V8.57111C46.8949 8.78675 47.1291 8.9641 47.392 9.10317C47.5868 9.20424 47.7894 9.28509 48 9.34572V8.00048C47.9022 7.96642 47.8077 7.92568 47.7164 7.87828C47.392 7.70991 47.1353 7.46577 46.9461 7.14587C46.7569 6.82597 46.6623 6.45135 46.6623 6.02201C46.6623 5.58425 46.7569 5.20963 46.9461 4.89814C47.1353 4.57824 47.392 4.3341 47.7164 4.16574C47.8077 4.11833 47.9022 4.0776 48 4.04354V2.70275ZM49 8.12452C49.3293 8.1021 49.6267 8.02002 49.8922 7.87828C50.2165 7.70991 50.4733 7.46577 50.6625 7.14587C50.8517 6.82597 50.9463 6.45135 50.9463 6.02201C50.9463 5.58425 50.8517 5.20963 50.6625 4.89814C50.4733 4.57824 50.2165 4.3341 49.8922 4.16574C49.6267 4.02399 49.3293 3.94191 49 3.9195V2.57465C49.0001 2.57465 49.0002 2.57465 49.0003 2.57465C49.712 2.57465 50.3382 2.71776 50.8788 3.00399C51.4283 3.29022 51.8608 3.69009 52.1761 4.20362C52.5005 4.71714 52.6627 5.32327 52.6627 6.02201C52.6627 6.72074 52.5005 7.33108 52.1761 7.85302C51.8608 8.36655 51.4283 8.76643 50.8788 9.05265C50.3382 9.33888 49.712 9.482 49.0003 9.482C49.0002 9.482 49.0001 9.482 49 9.482V8.12452Z" fill="#575555"/>
</svg>
