<svg width="53" height="15" viewBox="0 0 53 15" fill="none" xmlns="http://www.w3.org/2000/svg">
<path fill-rule="evenodd" clip-rule="evenodd" d="M4.00001 1.57828C3.16192 1.60762 2.45692 1.75393 1.88501 2.01719C1.25157 2.30326 0.776483 2.6915 0.45976 3.18191C0.153254 3.6621 0 4.19338 0 4.77574C0 5.34789 0.117495 5.81786 0.352483 6.18567C0.58747 6.55348 0.888868 6.84977 1.25668 7.07454C1.6347 7.28909 2.04848 7.46789 2.49802 7.61092C2.73337 7.67891 3.14214 7.43775 3.54542 7.19983C3.70121 7.10792 3.85618 7.01649 4.00001 6.94356V6.15773C3.72247 6.08531 3.46191 6.01289 3.21831 5.94047C2.85051 5.82808 2.54911 5.67483 2.31412 5.48071C2.08935 5.27637 1.97696 5.01073 1.97696 4.68379C1.97696 4.40794 2.20684 3.94818 2.20684 3.94818C2.20684 3.94818 2.62063 3.55994 2.95778 3.42712C3.23848 3.31979 3.58589 3.25583 4.00001 3.23523V1.57828ZM5.00001 6.40151V6.91128C5.27595 6.98195 5.5327 7.05688 5.77027 7.13607C6.1483 7.24845 6.4548 7.40682 6.68979 7.61115C6.92478 7.80527 7.04227 8.06581 7.04227 8.39275C7.04227 8.65839 6.96054 8.89849 6.79707 9.11305C6.63359 9.31738 6.37818 9.48086 6.0308 9.60346C5.75489 9.70084 5.41129 9.75955 5.00001 9.77958V11.4368C5.83308 11.4076 6.53426 11.2664 7.10357 11.0134C7.74723 10.7171 8.22231 10.3289 8.52882 9.84867C8.84554 9.35826 9.0039 8.82696 9.0039 8.25482C9.0039 7.69289 8.88641 7.22802 8.65142 6.86021C8.53361 6.66744 8.21154 6.8156 7.87727 6.96938C7.57376 7.10901 7.26018 7.25327 7.08029 7.15116C6.71248 6.93661 6.2987 6.76292 5.83894 6.6301C5.56125 6.54806 5.2816 6.47186 5.00001 6.40151ZM4.00001 11.4171V9.749C3.56679 9.69875 3.14029 9.59915 2.72053 9.45021C2.08709 9.22543 1.55581 8.94446 1.1267 8.6073L0.437058 10.1552C0.8866 10.5332 1.49451 10.8448 2.26077 11.09C2.82138 11.2619 3.40112 11.371 4.00001 11.4171ZM5.00001 3.2777V1.60318C5.41462 1.64048 5.82708 1.71207 6.2374 1.81796C6.87084 1.98143 7.42255 2.21642 7.89253 2.52292L7.26419 4.07078C6.784 3.78471 6.28848 3.57526 5.77764 3.44244C5.51294 3.36833 5.25373 3.31341 5.00001 3.2777Z" fill="black"/>
<path fill-rule="evenodd" clip-rule="evenodd" d="M13 3.36195C12.7025 3.43235 12.4268 3.55152 12.173 3.71945C11.919 3.88456 11.7005 4.09311 11.5175 4.34511V0.156631H10V11.6506H11.5175V7.46816C11.5175 6.9105 11.5903 6.45095 11.736 6.08951C11.8898 5.71773 12.1042 5.4389 12.3794 5.25302C12.5674 5.12603 12.7742 5.04242 13 5.00218V3.36195ZM14 5.12323C14.1765 5.21337 14.3283 5.34442 14.4553 5.51636C14.7305 5.8778 14.8681 6.42513 14.8681 7.15835V11.6506H16.3855V6.9105C16.3855 6.07402 16.2682 5.39243 16.0335 4.86575C15.7988 4.32875 15.4751 3.93116 15.0623 3.67298C14.7434 3.46951 14.3893 3.34622 14 3.30311V5.12323Z" fill="black"/>
<path fill-rule="evenodd" clip-rule="evenodd" d="M20 3.38451C19.527 3.45215 19.0948 3.6175 18.7036 3.88055C18.1769 4.23465 17.7613 4.72534 17.4568 5.35261C17.1523 5.96976 17 6.68303 17 7.49241C17 8.29167 17.1523 9.00494 17.4568 9.63221C17.7613 10.2595 18.1769 10.7552 18.7036 11.1194C19.0948 11.3825 19.527 11.5478 20 11.6155V9.95738C19.8252 9.90689 19.6606 9.82885 19.506 9.72326C19.2179 9.52092 18.9875 9.22752 18.8147 8.84306C18.6418 8.45861 18.5554 8.00839 18.5554 7.49241C18.5554 6.96631 18.6418 6.5161 18.8147 6.14176C18.9875 5.7573 19.2179 5.4639 19.506 5.26156C19.6596 5.15664 19.8243 5.07892 20 5.02841V3.38451ZM21 9.96315C21.1848 9.91292 21.3575 9.83296 21.5181 9.72326C21.8144 9.52092 22.0448 9.22752 22.2094 8.84306C22.3823 8.45861 22.4687 8.00839 22.4687 7.49241C22.4687 6.96631 22.3823 6.5161 22.2094 6.14176C22.0448 5.7573 21.8144 5.4639 21.5181 5.26156C21.3565 5.15113 21.1837 5.07084 21 5.02067V3.38211C21.4844 3.44818 21.9245 3.61433 22.3205 3.88055C22.8555 4.23465 23.2711 4.72028 23.5673 5.33744C23.8718 5.95459 24.0241 6.67291 24.0241 7.49241C24.0241 8.29167 23.8718 9.00494 23.5673 9.63221C23.2711 10.2595 22.8555 10.7552 22.3205 11.1194C21.9245 11.3857 21.4844 11.5518 21 11.6179V9.96315Z" fill="black"/>
<path fill-rule="evenodd" clip-rule="evenodd" d="M30 3.3494H29.407L27.4447 9.47932L25.5715 3.3494H24L26.6103 11.6506H28.2084L30 6.16607V5.68863V5.1682V3.3494ZM31 8.8088L31.9108 11.6506H33.5089L36.1325 3.3494H34.6543L32.7186 9.5006L31 3.97504V8.8088Z" fill="black"/>
<path fill-rule="evenodd" clip-rule="evenodd" d="M40 9.84571C39.5891 9.74341 39.2463 9.51432 38.9904 9.15844C38.6391 8.65899 38.4634 7.85885 38.4634 6.75802V0.795181H37V6.83447C37 8.39398 37.3094 9.58654 37.9281 10.4122C38.4527 11.1036 39.1433 11.5055 40 11.6179V9.84571ZM41 11.6224C41.8802 11.5166 42.6207 11.1132 43.1461 10.4122C43.7725 9.58654 44.0241 8.39398 44.0241 6.83447V0.795181H42.619V6.75802C42.619 7.85885 42.4433 8.65899 42.0919 9.15844C41.8288 9.53245 41.4476 9.76642 41 9.86036V11.6224Z" fill="black"/>
<path fill-rule="evenodd" clip-rule="evenodd" d="M48 3.50826C47.7765 3.58447 47.5648 3.68811 47.365 3.81918C47.0766 4.00204 46.8243 4.24395 46.6082 4.54489V3.44335H45V14.8434H46.6893V10.7855C46.8949 11.0529 47.1291 11.2728 47.392 11.4453C47.5868 11.5706 47.7894 11.6709 48 11.7461V10.0779C47.9022 10.0356 47.8077 9.98512 47.7164 9.92633C47.392 9.71754 47.1353 9.41479 46.9461 9.01809C46.7569 8.62138 46.6623 8.15682 46.6623 7.6244C46.6623 7.08154 46.7569 6.61698 46.9461 6.23072C47.1353 5.83402 47.392 5.53127 47.7164 5.32248C47.8077 5.26369 47.9022 5.21318 48 5.17094V3.50826ZM49 10.2317C49.3293 10.2039 49.6267 10.1021 49.8922 9.92633C50.2165 9.71754 50.4733 9.41479 50.6625 9.01809C50.8517 8.62138 50.9463 8.15682 50.9463 7.6244C50.9463 7.08154 50.8517 6.61698 50.6625 6.23072C50.4733 5.83402 50.2165 5.53127 49.8922 5.32248C49.6267 5.1467 49.3293 5.04491 49 5.01712V3.3494C49.0001 3.3494 49.0002 3.3494 49.0003 3.3494C49.712 3.3494 50.3382 3.52687 50.8788 3.88181C51.4283 4.23676 51.8608 4.73264 52.1761 5.36945C52.5005 6.00627 52.6627 6.75792 52.6627 7.6244C52.6627 8.49089 52.5005 9.24776 52.1761 9.89501C51.8608 10.5318 51.4283 11.0277 50.8788 11.3827C50.3382 11.7376 49.712 11.9151 49.0003 11.9151C49.0002 11.9151 49.0001 11.9151 49 11.9151V10.2317Z" fill="black"/>
</svg>
