<?xml version="1.0" encoding="UTF-8" standalone="no"?>
<!-- Created with Inkscape (http://www.inkscape.org/) -->

<svg
   width="139.08005mm"
   height="37.576897mm"
   viewBox="0 0 139.08005 37.576897"
   version="1.1"
   id="svg1"
   xml:space="preserve"
   inkscape:export-filename="mollie_logo.png"
   inkscape:export-xdpi="96.278091"
   inkscape:export-ydpi="96.278091"
   xmlns:inkscape="http://www.inkscape.org/namespaces/inkscape"
   xmlns:sodipodi="http://sodipodi.sourceforge.net/DTD/sodipodi-0.dtd"
   xmlns="http://www.w3.org/2000/svg"
   xmlns:svg="http://www.w3.org/2000/svg"><sodipodi:namedview
     id="namedview1"
     pagecolor="#ffffff"
     bordercolor="#000000"
     borderopacity="0.25"
     inkscape:showpageshadow="2"
     inkscape:pageopacity="0.0"
     inkscape:pagecheckerboard="0"
     inkscape:deskcolor="#d1d1d1"
     inkscape:document-units="mm"
     showguides="true"><sodipodi:guide
       position="61.037927,252.7045"
       orientation="0,-1"
       id="guide1"
       inkscape:locked="false" /><sodipodi:guide
       position="28.46379,240.02817"
       orientation="0,-1"
       id="guide2"
       inkscape:locked="false" /></sodipodi:namedview><defs
     id="defs1" /><g
     inkscape:label="Layer 1"
     inkscape:groupmode="layer"
     id="layer1"
     transform="translate(-41.839673,-82.574758)"><g
       id="g11"><rect
         style="fill:#000000;fill-rule:evenodd;stroke-width:0.213189"
         id="rect9"
         width="139.08005"
         height="37.576904"
         x="41.839672"
         y="82.574753"
         inkscape:transform-center-x="-1.0972652"
         inkscape:transform-center-y="0.21945531"
         ry="7.0309029" /><g
         id="g10"
         transform="matrix(0.49682161,0,0,0.49682161,56.138449,51.022692)"><g
           id="g8"
           transform="matrix(1.0507248,0,0,1.0507248,6.0399552,-17.833636)"><g
             id="g9"><path
               style="fill:#ffffff;fill-rule:evenodd;stroke-width:0.944827;stroke-linecap:round;stroke-linejoin:round"
               d="m 56.504255,126.68023 h 4.185541 l 0.09639,-10.80108 c 0,0 1.065153,-2.76724 3.521881,-2.85823 2.45673,-0.091 3.109873,1.87384 3.655811,3.05671 0.545942,1.18287 0.0961,10.78458 0.0961,10.78458 h 4.185539 V 116.029 c 0.188599,-0.88013 1.761313,-3.22982 3.960911,-2.97054 1.692146,0.19946 2.879259,2.29663 3.227296,2.79396 v 10.82781 h 4.185539 l -0.160657,-12.40706 c -0.02974,-2.29664 -2.869264,-4.73318 -5.646783,-5.29049 -1.985337,-0.39836 -4.067526,0.16066 -4.840943,0.47912 -0.773418,0.31846 -2.818133,1.79563 -2.818133,1.79563 0,0 -2.18376,-2.27475 -4.958956,-2.41124 -2.775193,-0.13649 -3.958063,0.68243 -4.731477,0.95539 -0.773414,0.27298 -1.865294,1.1024 -2.638711,2.01229 -0.773414,0.9099 -1.124011,2.23211 -1.124011,2.23211 z"
               id="path1"
               sodipodi:nodetypes="cccsscccscccssscssscc" /><circle
               style="fill:#ffffff;fill-rule:evenodd;stroke:none;stroke-width:5.2;stroke-linecap:round;stroke-linejoin:round;stroke-dasharray:none;paint-order:normal"
               id="circle2"
               cx="94.582214"
               cy="118.52072"
               r="8.1481524" /><path
               style="fill:#ffffff;fill-rule:evenodd;stroke:none;stroke-width:4.73501;stroke-linecap:round;stroke-linejoin:round;stroke-dasharray:none;paint-order:normal"
               d="m 105.5142,100.52572 h 4.23103 v 26.29611 h -4.27653 z"
               id="path2" /><path
               style="fill:#ffffff;fill-rule:evenodd;stroke:none;stroke-width:4.73501;stroke-linecap:round;stroke-linejoin:round;stroke-dasharray:none;paint-order:normal"
               d="m 113.11514,100.58998 h 4.23103 v 26.29611 h -4.27653 z"
               id="path3" /><g
               id="g7"
               transform="translate(-5.0767584,-33.866477)"
               style="fill:#ffffff"><path
                 style="fill:#ffffff;fill-rule:evenodd;stroke:none;stroke-width:3.8656;stroke-linecap:round;stroke-linejoin:round;stroke-dasharray:none;paint-order:normal"
                 d="m 125.91035,143.1168 h 4.23103 v 17.52607 h -4.27653 z"
                 id="path4" /><circle
                 style="fill:#ffffff;fill-rule:evenodd;stroke:none;stroke-width:5.05564;stroke-linecap:round;stroke-linejoin:round;stroke-dasharray:none;paint-order:normal"
                 id="path5"
                 cx="128.02274"
                 cy="136.8029"
                 r="2.865967" /></g><path
               id="path6"
               style="opacity:1;fill:#ffffff;fill-rule:evenodd;stroke:none;stroke-width:4.73501;stroke-linecap:round;stroke-linejoin:round;stroke-dasharray:none;paint-order:normal"
               d="m 135.36514,108.80707 c -1.68286,6.6e-4 -3.42545,0.47504 -5.08083,1.6304 -3.20245,2.23511 -4.27537,7.29272 -3.1843,10.60038 0.91407,2.7711 4.4371,5.69924 7.77988,5.77794 3.1396,0.0739 4.82211,-0.22796 6.7784,-2.45721 1.95629,-2.22926 2.04742,-2.36575 2.04742,-2.36575 l -3.68504,-1.81952 c 0,0 -1.13757,3.04796 -4.32222,2.82049 -3.18465,-0.22747 -3.86678,-2.09273 -4.27623,-2.45669 -0.40945,-0.36396 -0.45526,-1.09193 -0.45526,-1.09193 h 0.1819 13.10256 c 0.18734,-0.0468 0.55712,-6.32099 -3.0024,-8.73486 -1.65477,-1.12218 -3.72021,-1.90409 -5.88388,-1.90325 z m 0.60616,3.90519 c 2.37959,0.003 3.95842,3.02748 3.95842,3.04788 h -8.78086 l -0.0455,-0.1819 c -0.15354,-0.0945 1.14736,-2.86998 4.86792,-2.86598 z" /><circle
               style="opacity:1;fill:#000000;fill-rule:evenodd;stroke:none;stroke-width:0.311335;stroke-linecap:round;stroke-linejoin:round;stroke-dasharray:none;paint-order:normal"
               id="path9"
               cx="94.582214"
               cy="118.52072"
               r="4.0062332" /></g></g></g></g></g></svg>
