<svg width="44" height="48" viewBox="0 0 44 48" fill="none" xmlns="http://www.w3.org/2000/svg">
<path d="M44 47.6811C44 44.7502 43.431 41.8479 42.3253 39.1401C41.2197 36.4322 39.5992 33.9718 37.5563 31.8993C35.5135 29.8268 33.0882 28.1829 30.419 27.0612C27.7499 25.9396 24.8891 25.3623 22 25.3623C19.1109 25.3623 16.2501 25.9396 13.581 27.0612C10.9118 28.1829 8.48654 29.8268 6.44365 31.8993C4.40076 33.9718 2.78025 36.4322 1.67465 39.1401C0.569046 41.8479 -2.52571e-07 44.7502 0 47.6811L3.99668 47.6811C3.99668 45.2827 4.46235 42.9076 5.3671 40.6917C6.27185 38.4758 7.59797 36.4624 9.26973 34.7664C10.9415 33.0704 12.9262 31.7251 15.1104 30.8072C17.2947 29.8893 19.6358 29.4169 22 29.4169C24.3642 29.4169 26.7053 29.8893 28.8896 30.8072C31.0738 31.7251 33.0585 33.0704 34.7303 34.7664C36.402 36.4624 37.7281 38.4758 38.6329 40.6917C39.5376 42.9076 40.0033 45.2827 40.0033 47.6811H44Z" fill="#4F4F4F"/>
<mask id="path-2-inside-1_21_5" fill="white">
<path fill-rule="evenodd" clip-rule="evenodd" d="M22 22.3188C28.0751 22.3188 33 17.3226 33 11.1594C33 4.99624 28.0751 0 22 0C15.9249 0 11 4.99624 11 11.1594C11 17.3226 15.9249 22.3188 22 22.3188ZM22 20.2899C26.9706 20.2899 31 16.202 31 11.1594C31 6.11682 26.9706 2.02899 22 2.02899C17.0294 2.02899 13 6.11682 13 11.1594C13 16.202 17.0294 20.2899 22 20.2899Z"/>
</mask>
<path fill-rule="evenodd" clip-rule="evenodd" d="M22 22.3188C28.0751 22.3188 33 17.3226 33 11.1594C33 4.99624 28.0751 0 22 0C15.9249 0 11 4.99624 11 11.1594C11 17.3226 15.9249 22.3188 22 22.3188ZM22 20.2899C26.9706 20.2899 31 16.202 31 11.1594C31 6.11682 26.9706 2.02899 22 2.02899C17.0294 2.02899 13 6.11682 13 11.1594C13 16.202 17.0294 20.2899 22 20.2899Z" fill="white"/>
<path d="M31 11.1594C31 16.2453 26.9435 20.3188 22 20.3188V24.3188C29.2067 24.3188 35 18.3999 35 11.1594H31ZM22 2C26.9435 2 31 6.07358 31 11.1594H35C35 3.9189 29.2067 -2 22 -2V2ZM13 11.1594C13 6.07358 17.0565 2 22 2V-2C14.7933 -2 9 3.9189 9 11.1594H13ZM22 20.3188C17.0565 20.3188 13 16.2453 13 11.1594H9C9 18.3999 14.7933 24.3188 22 24.3188V20.3188ZM29 11.1594C29 15.1247 25.839 18.2899 22 18.2899V22.2899C28.1022 22.2899 33 17.2794 33 11.1594H29ZM22 4.02899C25.839 4.02899 29 7.19416 29 11.1594H33C33 5.03948 28.1022 0.0289855 22 0.0289855V4.02899ZM15 11.1594C15 7.19416 18.161 4.02899 22 4.02899V0.0289855C15.8978 0.0289855 11 5.03948 11 11.1594H15ZM22 18.2899C18.161 18.2899 15 15.1247 15 11.1594H11C11 17.2794 15.8978 22.2899 22 22.2899V18.2899Z" fill="#4F4F4F" mask="url(#path-2-inside-1_21_5)"/>
</svg>
