<svg width="44" height="69" viewBox="0 0 44 69" fill="none" xmlns="http://www.w3.org/2000/svg">
<path d="M44 47C44 44.1109 43.431 41.2501 42.3253 38.581C41.2197 35.9118 39.5992 33.4865 37.5563 31.4437C35.5135 29.4008 33.0882 27.7803 30.419 26.6747C27.7499 25.569 24.8891 25 22 25C19.1109 25 16.2501 25.569 13.581 26.6747C10.9118 27.7803 8.48654 29.4008 6.44365 31.4437C4.40076 33.4865 2.78025 35.9118 1.67465 38.581C0.569046 41.2501 -2.52571e-07 44.1109 0 47L3.99668 47C3.99668 44.6358 4.46235 42.2947 5.3671 40.1104C6.27185 37.9262 7.59797 35.9415 9.26973 34.2697C10.9415 32.598 12.9262 31.2719 15.1104 30.3671C17.2947 29.4624 19.6358 28.9967 22 28.9967C24.3642 28.9967 26.7053 29.4624 28.8896 30.3671C31.0738 31.2719 33.0585 32.598 34.7303 34.2697C36.402 35.9415 37.7281 37.9262 38.6329 40.1104C39.5376 42.2947 40.0033 44.6358 40.0033 47H44Z" fill="#4F4F4F"/>
<mask id="path-2-inside-1_11_24" fill="white">
<path fill-rule="evenodd" clip-rule="evenodd" d="M22 22C28.0751 22 33 17.0751 33 11C33 4.92487 28.0751 0 22 0C15.9249 0 11 4.92487 11 11C11 17.0751 15.9249 22 22 22ZM22 20C26.9706 20 31 15.9706 31 11C31 6.02944 26.9706 2 22 2C17.0294 2 13 6.02944 13 11C13 15.9706 17.0294 20 22 20Z"/>
</mask>
<path fill-rule="evenodd" clip-rule="evenodd" d="M22 22C28.0751 22 33 17.0751 33 11C33 4.92487 28.0751 0 22 0C15.9249 0 11 4.92487 11 11C11 17.0751 15.9249 22 22 22ZM22 20C26.9706 20 31 15.9706 31 11C31 6.02944 26.9706 2 22 2C17.0294 2 13 6.02944 13 11C13 15.9706 17.0294 20 22 20Z" fill="white"/>
<path d="M31 11C31 15.9706 26.9706 20 22 20V24C29.1797 24 35 18.1797 35 11H31ZM22 2C26.9706 2 31 6.02944 31 11H35C35 3.8203 29.1797 -2 22 -2V2ZM13 11C13 6.02944 17.0294 2 22 2V-2C14.8203 -2 9 3.8203 9 11H13ZM22 20C17.0294 20 13 15.9706 13 11H9C9 18.1797 14.8203 24 22 24V20ZM29 11C29 14.866 25.866 18 22 18V22C28.0751 22 33 17.0751 33 11H29ZM22 4C25.866 4 29 7.13401 29 11H33C33 4.92487 28.0751 0 22 0V4ZM15 11C15 7.13401 18.134 4 22 4V0C15.9249 0 11 4.92487 11 11H15ZM22 18C18.134 18 15 14.866 15 11H11C11 17.0751 15.9249 22 22 22V18Z" fill="#4F4F4F" mask="url(#path-2-inside-1_11_24)"/>
</svg>
