<svg width="29" height="26" viewBox="0 0 29 26" fill="none" xmlns="http://www.w3.org/2000/svg">
<rect x="19.4755" y="16" width="11.0042" height="4" rx="1" transform="rotate(38.2338 19.4755 16)" fill="#4F4F4F"/>
<mask id="path-2-inside-1_12_35" fill="white">
<path fill-rule="evenodd" clip-rule="evenodd" d="M22 11C22 17.0751 17.0751 22 11 22C4.92487 22 0 17.0751 0 11C0 4.92487 4.92487 0 11 0C17.0751 0 22 4.92487 22 11ZM11 20C15.9706 20 20 15.9706 20 11C20 6.02944 15.9706 2 11 2C6.02944 2 2 6.02944 2 11C2 15.9706 6.02944 20 11 20Z"/>
</mask>
<path fill-rule="evenodd" clip-rule="evenodd" d="M22 11C22 17.0751 17.0751 22 11 22C4.92487 22 0 17.0751 0 11C0 4.92487 4.92487 0 11 0C17.0751 0 22 4.92487 22 11ZM11 20C15.9706 20 20 15.9706 20 11C20 6.02944 15.9706 2 11 2C6.02944 2 2 6.02944 2 11C2 15.9706 6.02944 20 11 20Z" fill="white"/>
<path d="M11 24C18.1797 24 24 18.1797 24 11H20C20 15.9706 15.9706 20 11 20V24ZM-2 11C-2 18.1797 3.8203 24 11 24V20C6.02944 20 2 15.9706 2 11H-2ZM11 -2C3.8203 -2 -2 3.8203 -2 11H2C2 6.02944 6.02944 2 11 2V-2ZM24 11C24 3.8203 18.1797 -2 11 -2V2C15.9706 2 20 6.02944 20 11H24ZM18 11C18 14.866 14.866 18 11 18V22C17.0751 22 22 17.0751 22 11H18ZM11 4C14.866 4 18 7.13401 18 11H22C22 4.92487 17.0751 0 11 0V4ZM4 11C4 7.13401 7.13401 4 11 4V0C4.92487 0 0 4.92487 0 11H4ZM11 18C7.13401 18 4 14.866 4 11H0C0 17.0751 4.92487 22 11 22V18Z" fill="#4F4F4F" mask="url(#path-2-inside-1_12_35)"/>
</svg>
