<svg width="104" height="27" viewBox="0 0 104 27" fill="none" xmlns="http://www.w3.org/2000/svg">
<path d="M7.30845 20.6741C5.99645 20.6741 4.74044 20.4901 3.54044 20.1221C2.34044 19.7381 1.38843 19.2501 0.684434 18.6581L1.76444 16.2341C2.43644 16.7621 3.26844 17.2021 4.26044 17.5541C5.25244 17.9061 6.26845 18.0821 7.30845 18.0821C8.18845 18.0821 8.90045 17.9861 9.44445 17.7941C9.98845 17.6021 10.3884 17.3461 10.6444 17.0261C10.9004 16.6901 11.0284 16.3141 11.0284 15.8981C11.0284 15.3861 10.8444 14.9781 10.4764 14.6741C10.1084 14.3541 9.62845 14.1061 9.03645 13.9301C8.46045 13.7381 7.81245 13.5621 7.09245 13.4021C6.38845 13.2421 4.63199 14.8817 3.91199 14.6737C3.20799 14.4497 2.55999 14.1697 1.96799 13.8337C1.39199 13.4817 0.919986 13.0177 0.551986 12.4417C0.183986 11.8657 -1.39475e-05 11.1297 -1.39475e-05 10.2337C-1.39475e-05 9.32171 0.239986 8.48971 0.719986 7.73771C1.21599 6.96971 1.95999 6.36171 2.95199 5.91371C3.95999 5.44971 5.23199 5.21771 6.76799 5.21771C7.77599 5.21771 8.77599 5.34571 9.76799 5.60171C10.76 5.85771 11.624 6.22571 12.36 6.70571L11.376 9.12971C10.624 8.68171 9.84799 8.35371 9.04799 8.14571C8.24799 7.92171 7.47999 7.80971 6.74399 7.80971C5.87999 7.80971 5.17599 7.91371 4.63199 8.12171C4.10399 8.32971 3.45599 8.93771 3.45599 8.93771C3.45599 8.93771 3.09599 9.65771 3.09599 10.0897C3.09599 10.6017 3.27199 11.0177 3.62399 11.3377C3.99199 11.6417 4.46399 11.8817 5.03999 12.0577C5.63199 12.2337 6.28799 12.4097 7.00799 12.5857C7.72799 12.7457 8.43999 12.9297 9.14399 13.1377C9.86399 13.3457 10.512 13.6177 11.088 13.9537C11.68 14.2897 13.1964 12.9221 13.5484 13.4981C13.9164 14.0741 14.1004 14.8021 14.1004 15.6821C14.1004 16.5781 13.8524 17.4101 13.3564 18.1781C12.8764 18.9301 12.1324 19.5381 11.1244 20.0021C10.1164 20.4501 8.84445 20.6741 7.30845 20.6741Z" fill="black"/>
<path d="M23.1 8.04C24.124 8.04 25.036 8.24 25.836 8.64C26.652 9.04 27.292 9.656 27.756 10.488C28.22 11.304 28.452 12.36 28.452 13.656V21H25.452V14.04C25.452 12.904 25.18 12.056 24.636 11.496C24.108 10.936 23.364 10.656 22.404 10.656C21.7 10.656 21.076 10.8 20.532 11.088C19.988 11.376 19.564 11.808 19.26 12.384C18.972 12.944 18.828 13.656 18.828 14.52V21H15.828V3.192H18.828V11.64L18.18 10.584C18.628 9.768 19.276 9.144 20.124 8.712C20.988 8.264 21.98 8.04 23.1 8.04ZM38.0411 21.168C36.7291 21.168 35.5611 20.888 34.5371 20.328C33.5131 19.752 32.7051 18.968 32.1131 17.976C31.5211 16.984 31.2251 15.856 31.2251 14.592C31.2251 13.312 31.5211 12.184 32.1131 11.208C32.7051 10.216 33.5131 9.44 34.5371 8.88C35.5611 8.32 36.7291 8.04 38.0411 8.04C39.3691 8.04 40.5451 8.32 41.5691 8.88C42.6091 9.44 43.4171 10.208 43.9931 11.184C44.5851 12.16 44.8811 13.296 44.8811 14.592C44.8811 15.856 44.5851 16.984 43.9931 17.976C43.4171 18.968 42.6091 19.752 41.5691 20.328C40.5451 20.888 39.3691 21.168 38.0411 21.168ZM38.0411 18.6C38.7771 18.6 39.4331 18.44 40.0091 18.12C40.5851 17.8 41.0331 17.336 41.3531 16.728C41.6891 16.12 41.8571 15.408 41.8571 14.592C41.8571 13.76 41.6891 13.048 41.3531 12.456C41.0331 11.848 40.5851 11.384 40.0091 11.064C39.4331 10.744 38.7851 10.584 38.0651 10.584C37.3291 10.584 36.6731 10.744 36.0971 11.064C35.5371 11.384 35.0891 11.848 34.7531 12.456C34.4171 13.048 34.2491 13.76 34.2491 14.592C34.2491 15.408 34.4171 16.12 34.7531 16.728C35.0891 17.336 35.5371 17.8 36.0971 18.12C36.6731 18.44 37.3211 18.6 38.0411 18.6ZM50.2303 21L45.5263 8.184H48.3583L52.3903 19.488H51.0463L55.2703 8.184H57.7903L61.8943 19.488H60.5743L64.7263 8.184H67.3903L62.6623 21H59.7823L56.0383 10.992H56.9263L53.1103 21H50.2303ZM76.965 21.24C74.661 21.24 72.853 20.592 71.541 19.296C70.245 18 69.597 16.128 69.597 13.68V4.2H72.717V13.56C72.717 15.288 73.085 16.544 73.821 17.328C74.573 18.112 75.629 18.504 76.989 18.504C78.349 18.504 79.397 18.112 80.133 17.328C80.869 16.544 81.237 15.288 81.237 13.56V4.2H84.309V13.68C84.309 16.128 83.653 18 82.341 19.296C81.045 20.592 79.253 21.24 76.965 21.24ZM95.4945 21.168C94.4545 21.168 93.5025 20.928 92.6385 20.448C91.7905 19.968 91.1105 19.248 90.5985 18.288C90.1025 17.312 89.8545 16.08 89.8545 14.592C89.8545 13.088 90.0945 11.856 90.5745 10.896C91.0705 9.936 91.7425 9.224 92.5905 8.76C93.4385 8.28 94.4065 8.04 95.4945 8.04C96.7585 8.04 97.8705 8.312 98.8305 8.856C99.8065 9.4 100.574 10.16 101.134 11.136C101.71 12.112 101.998 13.264 101.998 14.592C101.998 15.92 101.71 17.08 101.134 18.072C100.574 19.048 99.8065 19.808 98.8305 20.352C97.8705 20.896 96.7585 21.168 95.4945 21.168ZM88.3905 25.656V8.184H91.2465V11.208L91.1505 14.616L91.3905 18.024V25.656H88.3905ZM95.1585 18.6C95.8785 18.6 96.5185 18.44 97.0785 18.12C97.6545 17.8 98.1105 17.336 98.4465 16.728C98.7825 16.12 98.9505 15.408 98.9505 14.592C98.9505 13.76 98.7825 13.048 98.4465 12.456C98.1105 11.848 97.6545 11.384 97.0785 11.064C96.5185 10.744 95.8785 10.584 95.1585 10.584C94.4385 10.584 93.7905 10.744 93.2145 11.064C92.6385 11.384 92.1825 11.848 91.8465 12.456C91.5105 13.048 91.3425 13.76 91.3425 14.592C91.3425 15.408 91.5105 16.12 91.8465 16.728C92.1825 17.336 92.6385 17.8 93.2145 18.12C93.7905 18.44 94.4385 18.6 95.1585 18.6Z" fill="black"/>
</svg>
